<svg width="66" height="30" viewBox="0 0 66 30" fill="none" xmlns="http://www.w3.org/2000/svg">
<path id="Cjvt Logo" fill-rule="evenodd" clip-rule="evenodd" d="M65.0201 9.93116V4.81086H60.4148V0H55.4802L53.4391 6.19527V9.93116V19.1418C53.4391 21.5467 53.7832 22.4402 54.4009 23.0591C55.0543 23.7114 56.0853 24.2621 58.3874 24.2621C60.312 24.2621 62.2019 24.0208 63.3368 23.746L64.9855 23.3685V18.9005H62.0645C61.2055 18.9005 60.8616 18.8324 60.6906 18.6604C60.484 18.4537 60.4148 18.1108 60.4148 17.3546V9.93116H65.0201ZM45.6155 22.5429C45.2033 23.8487 44.6191 24.1246 43.3133 24.1246H38.708C37.4023 24.1246 36.8181 23.8487 36.4059 22.5429L30.563 4.8108H37.8491L40.9756 17.1825H41.3542L44.4471 4.8108H51.4573L45.6155 22.5429ZM21.6438 4.8108H28.4485V24.262C28.4485 26.9081 28.0353 27.9391 27.2109 28.7634C26.4893 29.485 25.4237 30 23.087 30C21.5065 30 20.338 29.7944 18.7911 29.485V24.5703H19.9941C20.853 24.5703 21.1971 24.5021 21.369 24.3301C21.5746 24.1246 21.6438 23.7806 21.6438 23.0243V4.8108ZM17.8696 16.3917C17.8696 20.0342 17.6629 21.684 16.5638 22.8177C15.6702 23.7459 14.742 24.0553 12.7146 24.0553H5.70445C3.67708 24.0553 2.7489 23.7459 1.85531 22.8177C0.58415 21.512 0 19.5538 0 14.4336C0 9.3133 0.58415 7.35415 1.85531 6.04836C2.71427 5.12019 3.67708 4.8108 5.70445 4.8108H12.7146C14.742 4.8108 15.6702 5.12019 16.5638 6.04836C17.6294 7.14751 17.9041 8.72915 17.8696 12.1996H11.5463C11.4781 10.7565 11.4435 10.4124 11.3061 10.2404C11.0995 10.0003 10.8247 9.93105 10.1031 9.93105H8.41872C7.69714 9.93105 7.42238 9.96568 7.21683 10.2404C7.01019 10.4817 6.87281 11.0659 6.87281 14.4336C6.87281 17.8013 7.01019 18.3855 7.21683 18.6257C7.42238 18.9004 7.69714 18.9351 8.41872 18.9351H10.1031C10.8247 18.9351 11.0995 18.8659 11.3061 18.6257C11.4781 18.4537 11.5117 18.0415 11.5463 16.3917H17.8696Z" fill="white"/>
</svg>
