<svg width="194" height="29" viewBox="0 0 194 29" fill="none" xmlns="http://www.w3.org/2000/svg" style="cursor: default;">
<g clip-path="url(#clip0_2_41)">
<path d="M48.1689 7.0517H49.9589C51.3014 7.0517 52.0173 6.78726 52.0173 5.28878C52.0173 3.7903 51.3372 3.63164 49.9589 3.63164H48.1689V7.0517ZM48.1689 11.5824H47.2202V2.96173H50.12C52.1248 2.96173 53.0376 3.56112 53.0376 5.3593C53.0834 5.6339 53.0733 5.91474 53.0078 6.18544C52.9423 6.45615 52.8228 6.71132 52.6562 6.93609C52.4896 7.16087 52.2793 7.35075 52.0375 7.49469C51.7956 7.63863 51.5272 7.73374 51.2477 7.7745L53.1451 11.6353H52.089L50.12 7.88027H48.1689V11.5824Z" fill="white"/>
<path d="M54.8992 11.6352V2.97931H60.1797V3.75499H55.83V6.87536H59.589V7.65104H55.83V10.8596H60.1797V11.6352H54.8992Z" fill="white"/>
<path d="M62.9721 7.28088H64.7621C66.1046 7.28088 66.8206 7.01644 66.8206 5.51796C66.8206 4.01948 66.1404 3.75504 64.7621 3.75504H62.9721V7.28088ZM62.9721 11.6353H62.0413V2.96173H64.7979C66.8206 2.96173 67.7156 3.57875 67.7156 5.44745C67.7156 7.31614 66.8206 8.07419 64.7979 8.07419H63.0079L62.9721 11.6353Z" fill="white"/>
<path d="M75.1799 8.6207C75.2517 9.05262 75.2177 9.49518 75.0809 9.91159C74.9441 10.328 74.7083 10.7062 74.3932 11.0148C74.0781 11.3235 73.6927 11.5535 73.2692 11.686C72.8456 11.8184 72.3961 11.8494 71.9579 11.7763C71.5525 11.8259 71.141 11.7831 70.7551 11.6513C70.3691 11.5194 70.0191 11.302 69.732 11.0158C69.4449 10.7297 69.2283 10.3823 69.0991 10.0007C68.9698 9.61904 68.9313 9.21325 68.9865 8.81462V2.96173H69.9173V8.65596C69.9173 10.3131 70.6154 10.983 72.0295 10.983C73.4436 10.983 74.1596 10.3131 74.1596 8.65596V2.96173H75.1799V8.6207Z" fill="white"/>
<path d="M80.3351 7.59821H78.2587V10.8596H80.3351C81.5344 10.8596 82.1251 10.3484 82.1251 9.22009C82.1251 8.09182 81.5344 7.59821 80.3351 7.59821ZM80.2098 3.75504H78.2587V6.84015H80.2098C81.3017 6.84015 81.9998 6.46994 81.9998 5.30641C81.9998 4.14289 81.3554 3.75504 80.2098 3.75504ZM80.1203 11.6353H77.31V2.96173H80.1203C82.1072 2.96173 82.9127 3.73742 82.9127 5.21827C82.9836 5.61576 82.9138 6.02517 82.7151 6.37812C82.5164 6.73106 82.2007 7.00616 81.8208 7.15748C82.2406 7.30414 82.5954 7.59033 82.8241 7.96678C83.0528 8.34324 83.1411 8.78643 83.0738 9.22009C83.0738 10.8596 82.1967 11.5824 80.1203 11.5824" fill="white"/>
<path d="M84.9712 11.6352V2.97931H85.902V10.8596H90.0011V11.6352H84.9712Z" fill="white"/>
<path d="M92.4713 2.96173H91.5405V11.6353H92.4713V2.96173Z" fill="white"/>
<path d="M94.9057 2.97931H95.8365V6.78721H96.6599L99.5239 2.97931H100.598L97.4296 7.15742L100.669 11.6352H99.5418L96.6062 7.58052H95.8365V11.6352H94.9057V2.97931Z" fill="white"/>
<path d="M103.211 8.8146H106.451L104.858 3.84317L103.211 8.8146ZM106.791 9.57265H102.961L102.298 11.6882H101.332L104.214 3.03223H105.467L108.366 11.6353H107.4L106.791 9.57265Z" fill="white"/>
<path d="M114.56 11.7763C113.743 11.7943 112.93 11.6628 112.161 11.3885L112.43 10.5775C113.171 10.8377 113.952 10.9689 114.739 10.9654C116.01 10.9654 116.529 10.648 116.529 9.41399C116.529 8.17995 116.135 8.03892 114.739 7.65107C113.343 7.26323 112.304 6.62858 112.304 5.16536C112.304 3.70214 113.182 2.82068 115.043 2.82068C115.801 2.82761 116.553 2.96483 117.263 3.22615L117.102 4.00183C116.455 3.7607 115.77 3.63532 115.079 3.63162C113.754 3.63162 113.289 4.05472 113.289 5.09484C113.289 6.13496 113.844 6.45229 114.972 6.85776C117.048 7.47478 117.567 7.95077 117.567 9.41399C117.567 11.1769 116.779 11.8468 114.667 11.8468" fill="white"/>
<path d="M119.268 11.6352V2.97931H120.216V10.8596H124.315V11.6352H119.268Z" fill="white"/>
<path d="M130.67 7.28083C130.67 4.58357 130.097 3.63159 128.271 3.63159C126.445 3.63159 125.873 4.56594 125.873 7.28083C125.873 9.99572 126.428 10.9653 128.271 10.9653C130.115 10.9653 130.67 9.96047 130.67 7.28083ZM124.888 7.28083C124.888 3.91366 125.98 2.76776 128.289 2.76776C130.598 2.76776 131.654 3.89603 131.654 7.24557C131.654 10.5951 130.67 11.7763 128.343 11.7763C126.016 11.7763 124.942 10.6833 124.942 7.33372" fill="white"/>
<path d="M132.567 2.97931H133.516L135.879 10.7361H135.932L138.277 2.97931H139.172L136.541 11.6352H135.216L132.567 2.97931Z" fill="white"/>
<path d="M140.515 11.6352V2.97931H145.795V3.75499H141.464V6.87536H145.223V7.65104H141.464V10.8596H145.795V11.6352H140.515Z" fill="white"/>
<path d="M148.57 3.94897H148.516V11.6353H147.675V2.96173H149.035L152.991 10.6481H153.045V2.96173H153.904V11.6353H152.526L148.57 3.94897Z" fill="white"/>
<path d="M157.269 2.96173H156.338V11.6353H157.269V2.96173Z" fill="white"/>
<path d="M160.903 2.96173V10.9477C161.011 11.6256 160.842 12.318 160.433 12.8732C160.023 13.4284 159.407 13.8011 158.719 13.9095L158.469 13.1338C158.95 13.0436 159.376 12.772 159.657 12.3769C159.938 11.9818 160.051 11.4943 159.972 11.0183V2.96173H160.903Z" fill="white"/>
<path d="M163.91 8.8146H167.15L165.557 3.84317L163.91 8.8146ZM167.49 9.57265H163.66L162.997 11.6882H162.031L164.93 3.03223H166.183L169.065 11.6353H168.099L167.49 9.57265Z" fill="white"/>
<path d="M48.9565 17.5058L50.7465 21.4371H50.8002L52.5723 17.5058H54.5592V26.1794H53.0019V19.7623H52.9482L51.4446 23.1295H49.9947L48.4732 19.7623H48.4195V26.1794H46.9159V17.5058H48.9565Z" fill="white"/>
<path d="M58.1033 17.5058H56.4028V26.1794H58.1033V17.5058Z" fill="white"/>
<path d="M61.558 19.6742H61.5044V26.1794H59.9828V17.5058H62.2383L65.2096 24.2049H65.2812V17.5058H66.8027V26.1794H64.5294L61.558 19.6742Z" fill="white"/>
<path d="M70.3827 17.5058H68.6822V26.1794H70.3827V17.5058Z" fill="white"/>
<path d="M74.4102 26.3203C73.5424 26.3323 72.6782 26.2074 71.8505 25.9501L72.1727 24.5045C72.9251 24.7446 73.709 24.8753 74.4997 24.8924C75.3231 24.8924 75.8959 24.6632 75.8959 23.7817C75.8959 22.9003 75.5558 22.865 74.4102 22.5477C72.7992 22.0893 71.9221 21.5605 71.9221 19.8857C71.9221 18.2109 72.9424 17.3647 74.9472 17.3647C75.7448 17.3591 76.5356 17.5089 77.2742 17.8054L77.0773 19.1981C76.41 18.941 75.6996 18.8094 74.983 18.8103C74.2312 18.8103 73.6942 18.9337 73.6942 19.7447C73.6942 20.5556 74.2133 20.7671 75.2515 21.0668C77.0415 21.5957 77.6859 22.0893 77.6859 23.6583C77.6859 25.5799 76.7551 26.3203 74.4102 26.3203Z" fill="white"/>
<path d="M82.1609 18.969V26.1794H80.4425V18.969H78.1513V17.5058H84.4521V18.969H82.1609Z" fill="white"/>
<path d="M88.5691 18.9514H87.3519V21.3842H88.5691C89.7505 21.3842 90.0548 21.0669 90.0548 20.1325C90.0548 19.1982 89.6789 18.9514 88.5691 18.9514ZM90.3591 22.4772L92.3102 26.1441H90.3412L88.6407 22.7417H87.3519V26.1441H85.5619V17.5058H88.6049C91.0035 17.5058 91.7195 18.4049 91.7195 20.0797C91.7873 20.5818 91.6857 21.0919 91.4301 21.5316C91.1746 21.9712 90.7794 22.3158 90.3054 22.5125" fill="white"/>
<path d="M95.6575 26.3203C94.7834 26.3377 93.9125 26.2126 93.0799 25.9501L93.3842 24.5045C94.1366 24.7446 94.9205 24.8753 95.7112 24.8924C96.5346 24.8924 97.1074 24.6632 97.1074 23.7817C97.1074 22.9003 96.7673 22.865 95.6217 22.5477C94.0107 22.0893 93.1336 21.5605 93.1336 19.8857C93.1336 18.2109 94.1539 17.3647 96.1587 17.3647C96.9563 17.3591 97.7471 17.5089 98.4857 17.8054L98.2888 19.1981C97.6215 18.941 96.9111 18.8094 96.1945 18.8103C95.4427 18.8103 94.9057 18.9337 94.9057 19.7447C94.9057 20.5556 95.4248 20.7671 96.463 21.0668C98.253 21.5957 98.8974 22.0893 98.8974 23.6583C98.8974 25.5799 97.9666 26.3203 95.6217 26.3203" fill="white"/>
<path d="M103.408 18.969V26.1794H101.69V18.969H99.3986V17.5058H105.699V18.969H103.408Z" fill="white"/>
<path d="M111.141 26.1794H108.563L106.183 17.5058H107.991L109.852 24.6985H109.924L111.803 17.5058H113.522L111.141 26.1794Z" fill="white"/>
<path d="M119.518 21.8073C119.518 19.4978 119.142 18.8279 117.728 18.8279C116.314 18.8279 115.938 19.4802 115.938 21.8073C115.938 24.1343 116.314 24.8571 117.728 24.8571C119.142 24.8571 119.518 24.1167 119.518 21.8073ZM114.148 21.8073C114.148 18.2814 115.33 17.3118 117.728 17.3118C120.127 17.3118 121.308 18.3167 121.308 21.772C121.308 25.2273 120.18 26.2675 117.728 26.2675C115.276 26.2675 114.148 25.2802 114.148 21.8073Z" fill="white"/>
<path d="M125.139 26.1794V24.6985L129.077 18.9514H125.318V17.5058H130.992V18.9514L127 24.7338H131.082V26.1794H125.139Z" fill="white"/>
<path d="M134.357 22.9179H136.559L135.485 19.0042L134.357 22.9179ZM136.953 24.3283H133.963L133.462 26.0912H131.672L134.339 17.4352H136.631L139.316 26.0912H137.526L136.953 24.3283Z" fill="white"/>
<path d="M143.003 17.5058H144.721V21.014H145.205L147.55 17.5058H149.465L146.583 21.631L149.608 26.1794H147.585L145.169 22.3715H144.721V26.1794H143.003V17.5058Z" fill="white"/>
<path d="M156.983 17.5058V23.0766C156.983 25.3684 155.766 26.3204 153.6 26.3204C151.434 26.3204 150.36 25.4389 150.36 23.1295V17.5058H152.15V22.918C152.15 24.4517 152.687 24.8395 153.761 24.8395C154.835 24.8395 155.39 24.4164 155.39 23.0766V17.5058H156.983Z" fill="white"/>
<path d="M158.755 26.1794V17.5058H160.473V24.6985H164.125V26.1794H158.755Z" fill="white"/>
<path d="M167.598 18.969V26.1794H165.897V18.969H163.588V17.5058H169.889V18.969H167.598Z" fill="white"/>
<path d="M177.639 17.5058V23.0766C177.639 25.3684 176.422 26.3204 174.256 26.3204C172.09 26.3204 170.981 25.4389 170.981 23.1295V17.5058H172.771V22.918C172.771 24.4517 173.308 24.8395 174.382 24.8395C175.456 24.8395 176.011 24.4164 176.011 23.0766V17.5058H177.639Z" fill="white"/>
<path d="M182.347 18.9514H181.13V21.3842H182.347C183.529 21.3842 183.833 21.0669 183.833 20.1325C183.833 19.1982 183.439 18.9514 182.347 18.9514ZM184.137 22.4772L186.16 26.1794H184.191L182.401 22.7769H181.094V26.1794H179.304V17.5058H182.347C184.746 17.5058 185.462 18.4049 185.462 20.0797C185.53 20.5818 185.428 21.0919 185.172 21.5316C184.917 21.9712 184.522 22.3158 184.048 22.5125" fill="white"/>
<path d="M192.228 21.8073C192.228 19.4978 191.852 18.8279 190.438 18.8279C189.024 18.8279 188.648 19.4802 188.648 21.8073C188.648 24.1343 189.024 24.8571 190.438 24.8571C191.852 24.8571 192.228 24.1167 192.228 21.8073ZM186.858 21.8073C186.858 18.2814 188.039 17.3118 190.438 17.3118C192.837 17.3118 194.018 18.3167 194.018 21.772C194.018 25.2273 192.89 26.2675 190.438 26.2675C187.986 26.2675 186.858 25.2802 186.858 21.8073Z" fill="white"/>
<path d="M14.1231 2.69724L13.1028 2.57384L13.7293 3.38478L13.067 4.17809L14.1231 4.07232L14.5348 5.00667L14.9465 4.07232L15.931 4.17809L15.3403 3.38478L15.931 2.57384L14.9465 2.69724L14.5348 1.7629L14.1231 2.69724ZM11.3307 6.43463L10.2925 6.32885L10.919 7.05165L10.2567 7.84496L11.3307 7.73919L11.7245 8.81457L12.1362 7.86259L13.1386 7.96837L12.53 7.05165L13.1207 6.25834L12.1183 6.36411L11.7066 5.44739L11.3307 6.43463ZM8.44879 2.69724L7.41059 2.57384L8.03709 3.38478L7.37479 4.17809L8.44879 4.07232L8.94999 5.00667L9.34379 4.07232L10.3462 4.17809L9.66599 3.38478L10.2567 2.57384L9.25429 2.69724L8.94999 1.7629L8.44879 2.69724ZM14.32 21.9836C13.1028 21.9836 13.067 22.6711 11.6529 22.6711C10.2388 22.6711 10.0777 21.9836 8.93209 21.9836C7.78649 21.9836 7.71489 22.6711 6.15759 22.6711C7.64066 24.3926 9.56197 25.6947 11.7245 26.4437C13.8512 25.7195 15.7382 24.4399 17.184 22.7416C15.6804 22.7416 15.6446 22.0541 14.3916 22.0541M17.1124 21.7191C17.4568 21.7089 17.7964 21.6373 18.1148 21.5076L18.7055 20.5203C18.2136 20.7755 17.6682 20.9143 17.1124 20.9258C15.7878 20.9258 15.7162 20.2383 14.3916 20.2383C13.067 20.2383 13.0312 20.9258 11.6887 20.9258C10.3462 20.9258 10.3283 20.2383 9.00369 20.2383C7.67909 20.2383 7.55379 20.9258 6.30079 20.9258C5.74821 20.9007 5.20904 20.7499 4.7256 20.4851C4.90205 20.837 5.09929 21.1784 5.31629 21.5076C5.63299 21.617 5.96525 21.6765 6.30079 21.6839C7.71489 21.6839 7.67909 20.9963 9.00369 20.9963C10.3283 20.9963 10.4357 21.7191 11.6887 21.7191C12.9417 21.7191 13.1386 20.9963 14.3916 20.9963C15.6446 20.9963 15.7878 21.7191 17.1124 21.7191ZM9.32589 14.7909L7.67909 12.6048L3.6874 17.8936C3.71982 18.1947 3.81441 18.4861 3.96537 18.7499C4.11632 19.0137 4.32045 19.2443 4.5652 19.4276C4.80996 19.6109 5.09018 19.7429 5.38864 19.8156C5.6871 19.8883 5.99751 19.9002 6.30079 19.8504C7.44639 19.8504 7.67909 19.1629 9.00369 19.1629C10.3283 19.1629 10.4715 19.8504 11.7245 19.8504C12.9775 19.8504 13.0312 19.1629 14.3916 19.1629C15.752 19.1629 15.931 19.8504 17.1124 19.8504C17.4187 19.8871 17.7293 19.8629 18.026 19.7794C18.3226 19.6958 18.5993 19.5545 18.8396 19.3639C19.0798 19.1733 19.2789 18.9371 19.425 18.6695C19.571 18.4018 19.6611 18.108 19.69 17.8055L15.752 12.6048L14.0873 14.7909L11.7245 10.1015L9.32589 14.7909ZM21.8559 2.97931L21.0504 15.5842C20.8844 18.2238 19.9142 20.7527 18.2665 22.8409C16.6188 24.9292 14.3701 26.4796 11.814 27.2899C9.23913 26.4952 6.96868 24.9517 5.30102 22.8625C3.63335 20.7733 2.64652 18.236 2.4702 15.5842L1.6647 2.97931C1.41221 3.07346 1.16695 3.1854 0.930799 3.31426L1.7005 15.6547C1.87032 18.4943 2.92339 21.2137 4.71671 23.4435C6.51004 25.6733 8.95671 27.3055 11.7245 28.1185C14.4824 27.2913 16.9182 25.6547 18.7063 23.4275C20.4944 21.2002 21.5495 18.4884 21.7306 15.6547L22.5003 3.31426C22.2659 3.18208 22.0203 3.07002 21.7664 2.97931M22.6077 15.6899C22.4227 18.7472 21.2753 21.6717 19.3248 24.0571C17.3744 26.4425 14.7179 28.1701 11.7245 29C8.7284 28.1693 6.06839 26.4424 4.1123 24.0579C2.1562 21.6735 1.00067 18.7494 0.805499 15.6899L0 2.80302C3.62222 0.96171 7.63928 0.000915527 11.7155 0.000915527C15.7918 0.000915527 19.8089 0.96171 23.4311 2.80302L22.6077 15.6899Z" fill="#67A2BE"/>
</g>
<defs>
<clipPath id="clip0_2_41">
<rect width="194" height="29" fill="white"/>
</clipPath>
</defs>
</svg>
